<svg height="128pt" preserveAspectRatio="xMidYMid meet" viewBox="0 0 128 128" width="128pt" xmlns="http://www.w3.org/2000/svg"><g transform="matrix(.1 0 0 -.1 0 128)"><path d="m332 1273c2-5-22-39-54-78-155-192-262-498-242-693 6-57 5-65-15-78-11-8-21-22-21-30 0-17 5-17 30-4 16 8 21 6 31-12 6-13 22-35 35-49l24-26-26-47c-56-100-50-154 26-219 24-20 46-37 49-36 3 0 23 22 43 49 53 69 81 85 153 86 33 1 84 5 113 9 38 5 52 4 52-5 0-18 31-80 40-80 20 0 20 40 1 62-12 12-21 29-21 38 0 10-11 34-25 54s-25 43-25 50-18 26-39 40c-43 30-132 159-150 216-9 30-10 25-5-34 8-93 28-168 64-241l30-60-36 40c-89 100-142 279-130 439 18 241 80 400 206 529 36 37 72 67 79 67 8 0-7-18-31-40-61-53-101-118-133-215-29-88-55-225-55-293 0-41 1-42 23-32l22 11-22-20c-26-22-27-27-13-44 6-7 19-23 30-37l19-25-11 31c-6 17-8 39-5 48 8 21 37 32 46 18 4-7 12-8 21-2 21 13 70 12 70-1 0-7-11-8-31-4-22 5-29 4-25-4 4-6 19-11 33-11 17 0 27-7 31-23 5-19 7-18 13 12 10 50-6 78-50 85-21 3-52 2-69-3-38-11-40-6-9 32l23 29 58-26c68-30 79-32 49-8-12 9-25 29-28 45-7 25-5 27 24 27 19 0 34 6 37 15 4 8 16 15 28 15 19-1 18-3-11-30-18-16-33-33-33-37 0-3 11 4 25 17s25 19 25 15c0-5 7 1 16 13 9 13 26 22 41 22h26l-24-26c-13-15-39-33-56-40-38-17-45-28-8-14 45 17 74 41 105 88l30 45v-36c0-19-5-48-10-64-10-26-9-27 5-8 20 25 41 98 50 170 9 67 15 60 39-41 23-95 19-124-19-138-41-15-78-37-72-43 3-2 24 5 48 17 23 12 60 28 82 36 36 13 42 13 50-1 4-8 13-12 19-9 7 5 9 2 5-8-3-10 4-25 19-39 21-20 33-49 19-49-2 0-21 11-41 25-50 34-135 36-158 3-23-32-21-51 2-39 26 14 65 10 80-9 11-13 12-12 7 8-6 22-5 23 17 17 31-10 39-24 35-62-1-18 1-29 5-25s9 20 10 35c3 37 23 28 23-10 0-18 4-29 11-26 15 6 0-85-21-126-9-18-13-37-9-43s3-8-3-5c-5 3-25-10-44-29-35-36-22-38 29-6 30 19 28 1-3-36-26-31-33-48-15-37 12 8 13-8 1-20-5-6-12-21-16-35-8-24-8-24 19-7 14 10 26 16 26 14 0-1-12-27-28-57-29-58-96-117-143-127-23-4-28-11-31-45-3-29-1-36 7-25 5 8 20 17 32 21 39 12 119 82 133 115 7 18 15 30 19 28 49-27 115-51 173-63 84-18 102-26 146-68l33-31 25 28c24 28 24 32 24 210-1 361-27 604-82 752-36 96-46 141-29 131 22-14 10 2-14 18l-24 16 5-53c5-49 4-51-9-27l-15 24-4-24c-3-23-6-21-27 20-13 24-51 73-84 107l-60 63h-304c-166 0-302-3-301-7zm303-250c-4-21-13-49-20-63l-14-25-1 28c0 15-6 27-12 28-7 0-3 4 9 9s25 21 29 35c10 39 17 30 9-12zm244-18c-1-11-3-14-6-7-2 6-14 12-25 12-18 0-18 1-4 16 9 8 16 21 17 27 1 19 18-26 18-48zm105 29c3-8 2-12-4-9s-10 10-10 16c0 14 7 11 14-7zm-287-61c-3-10-5-2-5 17s2 27 5 18c2-10 2-26 0-35zm103 37c0-5-2-10-4-10-3 0-8 5-11 10-3 6-1 10 4 10 6 0 11-4 11-10zm-280-4c0-3-4-8-10-11-5-3-10-1-10 4 0 6 5 11 10 11 6 0 10-2 10-4zm333-198c-2-5-11-8-19-8-10 0-14 12-14 43l1 42 18-35c11-19 17-38 14-42zm-414 2c2 23 3 24 11 5 13-31 12-57-2-48-13 8-18 9-39 12-7 1-8 13-4 34 11 51 20 55 26 12 4-27 7-32 8-15zm-358-323c-8-8-11 2-10 39l1 49 10-38c7-28 7-42-1-50zm45-89c22-45 21-68 0-68-31 0-64 73-44 97 16 20 22 16 44-29zm35-321c34-42 33-55-3-37-65 34-87 77-61 121l18 30 8-38c4-21 21-55 38-76z"/><path d="m1140 1256c0-13-2-30-5-38-2-7 3-23 13-35 17-22 17-22 20 37 3 49 0 60-12 60-10 0-16-9-16-24z"/><path d="m113 1193c9-2 25-2 35 0 9 3 1 5-18 5s-27-2-17-5z"/><path d="m158 1173c-18-21-31-43-25-43 2 0 13 14 25 30 25 33 24 41 0 13z"/><path d="m395 613c9-40 20-47 20-13 0 17-6 32-14 35-10 4-12-1-6-22z"/><path d="m777 620c3-11 7-20 9-20s4 9 4 20-4 20-9 20-7-9-4-20z"/><path d="m300 580c0-11 4-20 9-20s7 9 4 20-7 20-9 20-4-9-4-20z"/><path d="m602 200c0-14 2-19 5-12 2 6 2 18 0 25-3 6-5 1-5-13z"/><path d="m600 83c-12-15-20-38-18-52 2-20 9-26 38-29 24-2 38 1 47 14 17 23 17 59-1 73-12 10-13 8-9-10 4-16 2-20-8-17-8 3-13 15-12 27 4 29-11 26-37-6z"/></g></svg>